<?xml version="1.0" encoding="utf-8"?>
<!-- Generator: Adobe Illustrator 24.0.1, SVG Export Plug-In . SVG Version: 6.00 Build 0)  -->
<svg version="1.1" id="Livello_1" xmlns="http://www.w3.org/2000/svg" xmlns:xlink="http://www.w3.org/1999/xlink" x="0px" y="0px"
	 viewBox="0 0 107.5 107.5" style="enable-background:new 0 0 107.5 107.5;" xml:space="preserve">
<style type="text/css">
	.st0{fill-rule:evenodd;clip-rule:evenodd;}
</style>
<title>Risorsa 1</title>
<g>
	<g>
		<path class="st0" d="M106.2,37.5c-0.4-0.2-8.9-4-24.3-4c-8.5,0-13.2,1.3-17.3,2.5c-3.4,1-6.3,1.8-10.9,1.8
			c-4.6,0-7.5-0.8-10.9-1.8c-4.1-1.2-8.7-2.5-17.3-2.5c-15.4,0-24,3.9-24.3,4c-0.5,0.2-0.8,0.6-0.8,1.1L0,45.2
			c0,0.6,0.3,1.1,0.9,1.4c0.6,0.2,1.3,0.7,1.4,0.9c0.1,0.2,0.2,1,0.4,2c0.7,3.4,2,9.6,3.6,13.8c1.8,4.8,3.8,6.9,8.3,8.9
			c2.7,1.2,6.9,1.9,10.9,1.9c3.9,0,7.6-0.7,10.6-2c7.8-3.4,9.7-8.5,12.1-15c0.3-1,0.7-1.8,0.9-2.6c1.7-4.8,2-5.4,4.6-5.4
			s2.9,0.6,4.6,5.4c0.3,0.8,0.6,1.6,0.9,2.6c2.4,6.5,4.2,11.6,12.1,15c3,1.3,6.7,2,10.6,2c4,0,8.2-0.7,10.9-1.9c4.5-2,6.5-4,8.3-8.9
			c1.6-4.1,2.9-10.4,3.6-13.8c0.2-1.1,0.4-1.8,0.4-2c0.1-0.2,0.8-0.7,1.4-0.9c0.6-0.2,0.9-0.8,0.9-1.4l-0.4-6.6
			C107,38.1,106.7,37.7,106.2,37.5L106.2,37.5L106.2,37.5z M40.3,60.9c-2.5,5.1-7.6,7.7-15.3,7.7c-6.2,0-10-1.4-12.3-4.5
			c-2.2-3-5-15.9-3.2-19.9c1.7-3.8,9.5-5.2,16.3-5.2c7.1,0,15.6,1.5,17.3,4.7C45,47,43.9,53.4,40.3,60.9L40.3,60.9L40.3,60.9z
			 M94.7,64.1c-2.3,3.1-6.1,4.5-12.3,4.5c-7.7,0-12.8-2.6-15.3-7.7c-3.6-7.5-4.7-13.9-2.9-17.2C66,40.5,74.4,39,81.6,39
			c6.8,0,14.6,1.4,16.3,5.2C99.7,48.1,97,61,94.7,64.1L94.7,64.1L94.7,64.1z"/>
	</g>
</g>
</svg>
